<svg width="240px"  height="190" xmlns="http://www.w3.org/2000/svg" baseProfile="basic" viewBox="0 0 64 48" id="truck"><path d="M6 22l14-7 40 20-14 7z" opacity=".3"></path><path fill="#2D3134" d="M11.3 20.1v3.7l2.5-1.2v-3.8z"></path><path d="M11.3 20.1v3.7l2.5-1.2v-3.8z" opacity=".39"></path><path fill="#2D3134" d="M15.7 19.7c-.7-.4-1.4-.4-1.9-.2l-1.4.7c-.5.2-.9.8-.9 1.6 0 1.5 1.3 3.4 2.8 4.2.8.4 1.5.4 2 .2 0 0 1.4-.7 1.5-.8.5-.3.7-.8.7-1.5 0-1.6-1.3-3.4-2.8-4.2z"></path><path d="M16.3 26.1c.2-.1 1.4-.7 1.5-.7.5-.3.7-.8.7-1.5 0-.6-.2-1.3-.5-1.9l-1.4.7c.3.6.5 1.3.5 1.9 0 .7-.3 1.3-.8 1.5z" opacity=".39"></path><path fill="#999" d="M16.4 24.2c0 1.2-.9 1.6-2.1 1s-2.1-2-2.1-3.2.9-1.6 2.1-1c1.2.6 2.1 2.1 2.1 3.2z"></path><path d="M14.5 25.2c-1.2-.6-2.1-2-2.1-3.2 0-.6.2-1 .6-1.2-.5.1-.8.6-.8 1.2 0 1.2.9 2.6 2.1 3.2.6.3 1.1.3 1.5.1-.4.2-.8.1-1.3-.1z" opacity=".15"></path><path fill="#2D3134" d="M15.4 23.5c0 .5-.4.7-.9.4-.5-.2-.9-.8-.9-1.3s.4-.7.9-.4c.5.3.9.8.9 1.3z"></path><path d="M15.4 23.5c0 .5-.4.7-.9.4-.5-.2-.9-.8-.9-1.3s.4-.7.9-.4c.5.3.9.8.9 1.3z" opacity=".39"></path><path fill="#2D3134" d="M15.2 23.6c0 .5-.4.7-.9.4-.5-.2-.9-.8-.9-1.3s.4-.7.9-.4c.5.2.9.8.9 1.3z"></path><path d="M17.1 24.6c0 1.5-1.3 2.2-2.8 1.4-1.5-.8-2.8-2.7-2.8-4.2s1.3-2.2 2.8-1.4c1.5.8 2.8 2.6 2.8 4.2z" opacity=".06"></path><path fill="#2D3134" d="M5 15v2l32 16v-2zM51 24v2l-14 7v-2z"></path><path fill="#28896D" d="M19 4L5 11v4l32 16 14-7v-4z"></path><path d="M11 13l8-4V5L7 11z" opacity=".39"></path><path d="M37 33L5 17v-6l32 16z" opacity=".06"></path><path d="M51 20l-14 7v6l14-7z" opacity=".39"></path><path fill="#28896D" d="M19 4L5 11l32 16 14-7L19 4zm18 22L7 11l12-6 30 15-12 6z"></path><path d="M45 22l4-2L19 5v4z" opacity=".06"></path><path fill="#FFF" d="M45 22L19 9l-8 4 26 13z" opacity=".1"></path><path fill="#2D3134" d="M51 24v2l-14 7v-2zM42.2 32.9c-.7-.4-1.4-.4-1.9-.2l-1.4.7c-.6.2-.9.8-.9 1.6 0 1.5 1.3 3.4 2.8 4.2.8.4 1.5.4 2 .2 0 0 1.4-.7 1.5-.8.5-.3.7-.8.7-1.5 0-1.6-1.3-3.5-2.8-4.2z"></path><path d="M42.8 39.3c.2-.1 1.4-.7 1.5-.7.5-.3.7-.8.7-1.5 0-.6-.2-1.3-.5-1.9l-1.4.7c.3.6.5 1.3.5 1.9 0 .7-.3 1.3-.8 1.5z" opacity=".39"></path><path fill="#999" d="M42.9 37.4c0 1.2-.9 1.6-2.1 1s-2.1-2-2.1-3.2.9-1.6 2.1-1 2.1 2 2.1 3.2z"></path><path d="M41 38.4c-1.2-.6-2.1-2-2.1-3.2 0-.6.2-1 .6-1.2-.5.1-.8.6-.8 1.2 0 1.2.9 2.6 2.1 3.2.6.3 1.1.3 1.5.1-.4.2-.8.1-1.3-.1z" opacity=".15"></path><path fill="#2D3134" d="M41.8 36.7c0 .5-.4.7-.9.4-.5-.2-.9-.8-.9-1.3s.4-.7.9-.4c.6.2.9.8.9 1.3z"></path><path d="M41.8 36.7c0 .5-.4.7-.9.4-.5-.2-.9-.8-.9-1.3s.4-.7.9-.4c.6.2.9.8.9 1.3z" opacity=".39"></path><path fill="#2D3134" d="M41.7 36.8c0 .5-.4.7-.9.4-.5-.2-.9-.8-.9-1.3s.4-.7.9-.4c.5.2.9.8.9 1.3z"></path><path d="M43.6 37.8c0 1.5-1.3 2.2-2.8 1.4S38 36.5 38 35s1.3-2.2 2.8-1.4 2.8 2.6 2.8 4.2z" opacity=".06"></path><path fill="#E5E5E5" d="M58 18l-6-3-14 7v11.3c0 .3.4.5.7.3 1.2-1 3.3-.3 4.8 1.5.9 1.1 1.3 2.3 1.3 3.3l1.2.6 14-7v-8l-2-6z"></path><path fill="#39C" d="M46.4 30.5l-1.7-5c-.1-.2 0-.3.2-.4l12.5-6.2c.2-.1.4 0 .5.2l1.6 4.7c.1.2 0 .3-.2.4l-12.4 6.5c-.2.1-.5 0-.5-.2z"></path><path d="M48.7 23.2l8.6-4.3c.2-.1.4 0 .5.2l1.5 4.4-10.6-.3z" opacity=".15"></path><path fill="#2D3134" d="M59.4 23.8l-.1-.3c0 .2 0 .3-.2.4l-12.4 6.5c-.2.1-.4 0-.5-.2l.1.3c.1.2.3.3.5.2l12.4-6.5c.2-.1.3-.2.2-.4z"></path><path fill="#FFF" d="M49.5 30l7-3.5v5.8l-7 3.5z"></path><path fill="#2D3134" d="M50 35l6-3v-4.7l-6 3z"></path><path fill="#2D3134" d="M60 32v-2l-14 7v2zM44 38l2 1v-2l-2-1z"></path><path fill="#FFF" d="M50 35v1l6-3v-1z"></path><path fill="#39C" d="M43.5 25.3l-3.8-1.9c-.1-.1-.3 0-.3.2v3c0 .2.1.4.3.4l1.3.7c.1.1.2.1.3.2l1.3 1.6h.1l2.2 1.1c.1.1.3-.1.2-.2l-1.7-5c.2 0 .2-.1.1-.1z"></path><path d="M45.3 30.3l-2-1h-.1l-1.3-1.6c-.1-.1-.2-.2-.3-.2l-1.3-.7c-.2-.1-.3-.2-.3-.4v-2.9l-.2-.1c-.1-.1-.3 0-.3.2v3c0 .2.1.4.3.4l1.3.7c.1.1.2.1.3.2l1.3 1.6h.1l2.2 1.1c.2.1.3 0 .3-.3z" opacity=".15"></path><path fill="#FC0" d="M46 35v2l-.5-.2v-2z"></path><path fill="#E5E5E5" d="M50 31v.3l6-3V28zM50 32v.3l6-3V29zM50 33v.3l6-3V30zM50 34v.3l6-3V31z"></path><path fill="#2D3134" d="M39.5 28.3v.5l1 .5v-.5z" opacity=".5"></path><path fill="#FFF" d="M40.5 29.5l-1-.5v-.2l1 .5z" opacity=".5"></path><path fill="#2D3134" d="M53.5 23.9c-.1-.1-.2-.1-.3 0l-3.8 4.3c-.1.1-.1.2 0 .3s.2.1.3 0l1-1.2v1h.3V27l2.5-2.9c.1 0 .1-.2 0-.2zM57.1 21.9c-.1-.1-.2-.1-.3 0L53 26.2c-.1.1-.1.2 0 .3.1.1.2.1.3 0l.9-1v1.1h.3v-1.4l2.6-3c.1-.1.1-.2 0-.3z"></path><path fill="#FFF" d="M58 31l2-1v-2l-1 .5c-.6.3-1 .9-1 1.6v.9z"></path><ellipse cx="58.7" cy="29.5" fill="#2D3134" opacity=".3" rx=".8" ry=".5" transform="scale(-1) rotate(-50.856 -62.142 123.497)"></ellipse><ellipse cx="59.2" cy="29.5" fill="#2D3134" opacity=".3" rx=".8" ry=".5" transform="scale(-1) rotate(-50.856 -62.142 124.549)"></ellipse><path fill="#FFF" d="M58 31l2-1v-2z" opacity=".3"></path><path fill="#FFF" d="M46 37l2-1v-.9c0-.5-.5-.8-1-.6l-1 .5v2z"></path><ellipse cx="47.2" cy="35.5" fill="#2D3134" opacity=".3" rx=".8" ry=".5" transform="scale(-1) rotate(-50.856 -74.761 99.31)"></ellipse><ellipse cx="46.7" cy="35.5" fill="#2D3134" opacity=".3" rx=".8" ry=".5" transform="scale(-1) rotate(-50.856 -74.761 98.258)"></ellipse><path fill="#FFF" d="M46 37l2-1-2-1z" opacity=".3"></path><path d="M44 25l-6-3v11.3c0 .3.4.5.7.3 1.2-1 3.3-.3 4.8 1.5.3.3.5.6.6 1L44 36v2l2 1v-8l-2-6z" opacity=".06"></path><path d="M58 18l-14 7 2 6v8l14-7v-8z" opacity=".39"></path></svg>